# xmcd
#
# Track frame offsets: 
#        150
#        20186
#        37685
#        56529
#        71544
#        86095
#        103767
#        117906
#        133428
#        148163
#        166010
#        176111
#
# Disc length: 2543 seconds
#
# Revision: 0
# Processed by: cddbd v1.5.2PL0 Copyright (c) Steve Scherf et al.
# Submitted via: ExactAudioCopyFreeDBPlugin 1.0
#
DISCID=ac09ed0c
DTITLE=Tommy McCook and The Aggrovators - Super Star Disco Rockers
DYEAR=1900
DGENRE=
TTITLE0=The Night Rose Of Sherron
TTITLE1=African Jumpers
TTITLE2=Rasta A The Master
TTITLE3=Lamb's Bread Herb
TTITLE4=Herb and Honey
TTITLE5=Macka Dub Rock
TTITLE6=Tommy's Rocking Vibration
TTITLE7=Disco Rockers
TTITLE8=Roots Of Africa
TTITLE9=The Bionic Horn
TTITLE10=Kojack
TTITLE11=Cannon
EXTD=
EXTT0=
EXTT1=
EXTT2=
EXTT3=
EXTT4=
EXTT5=
EXTT6=
EXTT7=
EXTT8=
EXTT9=
EXTT10=
EXTT11=
PLAYORDER=
